name Walk3.mot
datacolumns 19
datarows 20
range 2.08300000 2.10200000
endheader

                time	   L_ground_force_vx	   L_ground_force_vy	   L_ground_force_vz	   L_ground_force_px	   L_ground_force_py	   L_ground_force_pz	   R_ground_force_vx	   R_ground_force_vy	   R_ground_force_vz	   R_ground_force_px	   R_ground_force_py	   R_ground_force_pz	   L_ground_torque_x	   L_ground_torque_y	   L_ground_torque_z	   R_ground_torque_x	   R_ground_torque_y	   R_ground_torque_z	
          2.08300000	          0.00895467	          0.03112630	         -0.00179890	         -0.00022587	          0.00000000	         -0.00005183	        -32.30386928	        556.29087272	        -42.44436881	          0.20607860	          0.00000000	          0.11286853	          0.00000000	          0.00016295	          0.00000000	          0.00000000	          2.01239588	          0.00000000	
          2.08400000	          0.00782805	          0.02746795	         -0.00175995	         -0.00021495	          0.00000000	         -0.00004948	        -31.81580181	        554.82544839	        -42.34842542	          0.20643451	          0.00000000	          0.11297802	          0.00000000	          0.00015618	          0.00000000	          0.00000000	          2.00484860	          0.00000000	
          2.08500000	          0.00676764	          0.02401686	         -0.00171766	         -0.00020415	          0.00000000	         -0.00004714	        -31.33136171	        553.38123162	        -42.25148820	          0.20678946	          0.00000000	          0.11308692	          0.00000000	          0.00014939	          0.00000000	          0.00000000	          1.99697288	          0.00000000	
          2.08600000	          0.00577181	          0.02076844	         -0.00167248	         -0.00019349	          0.00000000	         -0.00004482	        -30.85060073	        551.95843245	        -42.15359692	          0.20714341	          0.00000000	          0.11319522	          0.00000000	          0.00014262	          0.00000000	          0.00000000	          1.98878901	          0.00000000	
          2.08700000	          0.00483885	          0.01771773	         -0.00162482	         -0.00018301	          0.00000000	         -0.00004253	        -30.37356307	        550.55723892	        -42.05479279	          0.20749633	          0.00000000	          0.11330290	          0.00000000	          0.00013588	          0.00000000	          0.00000000	          1.98031821	          0.00000000	
          2.08800000	          0.00396692	          0.01485945	         -0.00157508	         -0.00017273	          0.00000000	         -0.00004027	        -29.90028453	        549.17781738	        -41.95511823	          0.20784819	          0.00000000	          0.11340994	          0.00000000	          0.00012920	          0.00000000	          0.00000000	          1.97158263	          0.00000000	
          2.08900000	          0.00315414	          0.01218805	         -0.00152361	         -0.00016267	          0.00000000	         -0.00003806	        -29.43079176	        547.82031244	        -41.85461663	          0.20819894	          0.00000000	          0.11351634	          0.00000000	          0.00012261	          0.00000000	          0.00000000	          1.96260517	          0.00000000	
          2.09000000	          0.00239855	          0.00969772	         -0.00147076	         -0.00015285	          0.00000000	         -0.00003588	        -28.96510185	        546.48484701	        -41.75333190	          0.20854854	          0.00000000	          0.11362207	          0.00000000	          0.00011611	          0.00000000	          0.00000000	          1.95340915	          0.00000000	
          2.09100000	          0.00169813	          0.00738249	         -0.00141684	         -0.00014329	          0.00000000	         -0.00003376	        -28.50322237	        545.17152264	        -41.65130812	          0.20889692	          0.00000000	          0.11372712	          0.00000000	          0.00010972	          0.00000000	          0.00000000	          1.94401800	          0.00000000	
          2.09200000	          0.00105086	          0.00523621	         -0.00136216	         -0.00013400	          0.00000000	         -0.00003169	        -28.04515197	        543.88042016	        -41.54858924	          0.20924404	          0.00000000	          0.11383146	          0.00000000	          0.00010346	          0.00000000	          0.00000000	          1.93445487	          0.00000000	
          2.09300000	          0.00045464	          0.00325263	         -0.00130698	         -0.00012499	          0.00000000	         -0.00002968	        -27.59088123	        542.61160077	        -41.44521903	          0.20958982	          0.00000000	          0.11393507	          0.00000000	          0.00009735	          0.00000000	          0.00000000	          1.92474219	          0.00000000	
          2.09400000	         -0.00009260	          0.00142541	         -0.00125155	         -0.00011628	          0.00000000	         -0.00002772	        -27.14039378	        541.36510740	        -41.34124123	          0.20993421	          0.00000000	          0.11403793	          0.00000000	          0.00009138	          0.00000000	          0.00000000	          1.91490138	          0.00000000	
          2.09500000	         -0.00059296	         -0.00025183	         -0.00119610	         -0.00010787	          0.00000000	         -0.00002583	        -26.69366711	        540.14096597	        -41.23669989	          0.21027714	          0.00000000	          0.11414004	          0.00000000	          0.00008558	          0.00000000	          0.00000000	          1.90495253	          0.00000000	
          2.09600000	         -0.00104854	         -0.00178552	         -0.00114085	         -0.00009977	          0.00000000	         -0.00002400	        -26.25067313	        538.93918626	        -41.13163992	          0.21061857	          0.00000000	          0.11424136	          0.00000000	          0.00007995	          0.00000000	          0.00000000	          1.89491429	          0.00000000	
          2.09700000	         -0.00146142	         -0.00318206	         -0.00108598	         -0.00009197	          0.00000000	         -0.00002223	        -25.81137818	        537.75976240	        -41.02610769	          0.21095843	          0.00000000	          0.11434191	          0.00000000	          0.00007449	          0.00000000	          0.00000000	          1.88480379	          0.00000000	
          2.09800000	         -0.00183367	         -0.00444784	         -0.00103168	         -0.00008450	          0.00000000	         -0.00002054	        -25.37574283	        536.60267311	        -40.92015155	          0.21129670	          0.00000000	          0.11444168	          0.00000000	          0.00006922	          0.00000000	          0.00000000	          1.87463672	          0.00000000	
          2.09900000	         -0.00216735	         -0.00558919	         -0.00097810	         -0.00007734	          0.00000000	         -0.00001890	        -24.94372171	        535.46788242	        -40.81382240	          0.21163332	          0.00000000	          0.11454065	          0.00000000	          0.00006413	          0.00000000	          0.00000000	          1.86442732	          0.00000000	
          2.10000000	         -0.00246446	         -0.00661237	         -0.00092537	         -0.00007049	          0.00000000	         -0.00001734	        -24.51526348	        534.35534094	        -40.70717412	          0.21196826	          0.00000000	          0.11463885	          0.00000000	          0.00005924	          0.00000000	          0.00000000	          1.85418852	          0.00000000	
          2.10100000	         -0.00272700	         -0.00752358	         -0.00087363	         -0.00006396	          0.00000000	         -0.00001584	        -24.09031126	        533.26498812	        -40.60026413	          0.21230148	          0.00000000	          0.11473626	          0.00000000	          0.00005453	          0.00000000	          0.00000000	          1.84393198	          0.00000000	
          2.10200000	         -0.00295691	         -0.00832888	         -0.00082299	         -0.00005775	          0.00000000	         -0.00001441	        -23.66880315	        532.19675475	        -40.49315400	          0.21263295	          0.00000000	          0.11483289	          0.00000000	          0.00005002	          0.00000000	          0.00000000	          1.83366814	          0.00000000	
